<?xml version="1.0" encoding="UTF-8" ?>
<svg version="1.1" width="24" height="24" xmlns="http://www.w3.org/2000/svg" shape-rendering="crispEdges">
<rect x="9" y="19" width="1" height="1" fill="#323C39" />
<rect x="10" y="19" width="1" height="1" fill="#323C39" />
<rect x="13" y="19" width="1" height="1" fill="#323C39" />
<rect x="14" y="19" width="1" height="1" fill="#323C39" />
<rect x="8" y="20" width="1" height="1" fill="#323C39" />
<rect x="15" y="20" width="1" height="1" fill="#323C39" />
<rect x="7" y="21" width="1" height="1" fill="#323C39" />
<rect x="10" y="21" width="1" height="1" fill="#000000" />
<rect x="11" y="21" width="1" height="1" fill="#000000" />
<rect x="12" y="21" width="1" height="1" fill="#FBF236" />
<rect x="13" y="21" width="1" height="1" fill="#323C39" />
<rect x="16" y="21" width="1" height="1" fill="#323C39" />
<rect x="7" y="22" width="1" height="1" fill="#323C39" />
<rect x="9" y="22" width="1" height="1" fill="#000000" />
<rect x="10" y="22" width="1" height="1" fill="#3E51FB" />
<rect x="11" y="22" width="1" height="1" fill="#5266FA" />
<rect x="12" y="22" width="1" height="1" fill="#000000" />
<rect x="13" y="22" width="1" height="1" fill="#000000" />
<rect x="15" y="22" width="1" height="1" fill="#323C39" />
<rect x="8" y="23" width="1" height="1" fill="#323C39" />
<rect x="9" y="23" width="1" height="1" fill="#000000" />
<rect x="10" y="23" width="1" height="1" fill="#5266FA" />
<rect x="11" y="23" width="1" height="1" fill="#5266FA" />
<rect x="12" y="23" width="1" height="1" fill="#000000" />
<rect x="13" y="23" width="1" height="1" fill="#000000" />
<rect x="14" y="23" width="1" height="1" fill="#323C39" />
</svg>