<?xml version="1.0" encoding="UTF-8" ?>
<svg version="1.1" width="24" height="24" xmlns="http://www.w3.org/2000/svg" shape-rendering="crispEdges">
<rect x="5" y="21" width="1" height="1" fill="#3F3F74" />
<rect x="6" y="21" width="1" height="1" fill="#3F3F74" />
<rect x="7" y="21" width="1" height="1" fill="#3F3F74" />
<rect x="8" y="21" width="1" height="1" fill="#3F3F74" />
<rect x="9" y="21" width="1" height="1" fill="#3F3F74" />
<rect x="14" y="21" width="1" height="1" fill="#3F3F74" />
<rect x="15" y="21" width="1" height="1" fill="#3F3F74" />
<rect x="16" y="21" width="1" height="1" fill="#3F3F74" />
<rect x="17" y="21" width="1" height="1" fill="#3F3F74" />
<rect x="18" y="21" width="1" height="1" fill="#3F3F74" />
<rect x="6" y="22" width="1" height="1" fill="#3F3F74" />
<rect x="7" y="22" width="1" height="1" fill="#A0A0A0" />
<rect x="8" y="22" width="1" height="1" fill="#FFFFFF" />
<rect x="9" y="22" width="1" height="1" fill="#FFFFFF" />
<rect x="10" y="22" width="1" height="1" fill="#3F3F74" />
<rect x="13" y="22" width="1" height="1" fill="#3F3F74" />
<rect x="14" y="22" width="1" height="1" fill="#FFFFFF" />
<rect x="15" y="22" width="1" height="1" fill="#FFFFFF" />
<rect x="16" y="22" width="1" height="1" fill="#A0A0A0" />
<rect x="17" y="22" width="1" height="1" fill="#3F3F74" />
<rect x="7" y="23" width="1" height="1" fill="#3F3F74" />
<rect x="8" y="23" width="1" height="1" fill="#A0A0A0" />
<rect x="9" y="23" width="1" height="1" fill="#FFFFFF" />
<rect x="10" y="23" width="1" height="1" fill="#FFFFFF" />
<rect x="11" y="23" width="1" height="1" fill="#3F3F74" />
<rect x="12" y="23" width="1" height="1" fill="#3F3F74" />
<rect x="13" y="23" width="1" height="1" fill="#FFFFFF" />
<rect x="14" y="23" width="1" height="1" fill="#FFFFFF" />
<rect x="15" y="23" width="1" height="1" fill="#A0A0A0" />
<rect x="16" y="23" width="1" height="1" fill="#3F3F74" />
</svg>